# xmcd
#
# Track frame offsets: 
#        150
#        12609
#        23330
#        36026
#        46535
#        56737
#        64494
#        75769
#        84212
#        96487
#        104902
#
# Disc length: 1563 seconds
#
# Revision: 0
# Processed by: cddbd v1.5.2PL0 Copyright (c) Steve Scherf et al.
# Submitted via: ExactAudioCopy v1.1
#
DISCID=8006190b
DTITLE=Various Artist - Country Music 2
DYEAR=2015
DGENRE=Country
TTITLE0=Johnny Cash - Walk The Line
TTITLE1=George Jones - Accidently On Purpose
TTITLE2=Charley Pride - Crystal Chandeliers
TTITLE3=Jim Reeves - He'll Have To Go
TTITLE4=Willie Nelson - Healing Hands Of Time
TTITLE5=Dolly Parton - Puppy Love
TTITLE6=Kenny Rogers - She Believes In Me
TTITLE7=Willie Nelson - Slow Down Old World
TTITLE8=Lynn Anderson - Stand By Your Man
TTITLE9=Waylon Jennings - Abilene
TTITLE10=Johnny Cash - Give My Love To Rose
EXTD=
EXTT0=
EXTT1=
EXTT2=
EXTT3=
EXTT4=
EXTT5=
EXTT6=
EXTT7=
EXTT8=
EXTT9=
EXTT10=
PLAYORDER=
